HIERARCHY
ROOT Hips
{
  OFFSET -3.11763 96.5593 62.6462
  CHANNELS 6 Xposition Yposition Zposition Zrotation Xrotation Yrotation
  JOINT Chest
  {
    OFFSET 0 10.5691 -1.07959
    CHANNELS 6 Xposition Yposition Zposition Zrotation Xrotation Yrotation
    JOINT Chest2
    {
      OFFSET 0 11.6675 1.08235
      CHANNELS 6 Xposition Yposition Zposition Zrotation Xrotation Yrotation
      JOINT Chest3
      {
        OFFSET 0 10.5876 0
        CHANNELS 6 Xposition Yposition Zposition Zrotation Xrotation Yrotation
        JOINT Chest4
        {
          OFFSET 0 10.5876 0
          CHANNELS 6 Xposition Yposition Zposition Zrotation Xrotation Yrotation
          JOINT Neck
          {
            OFFSET 0 14.88 0
            CHANNELS 6 Xposition Yposition Zposition Zrotation Xrotation Yrotation
            JOINT Head
            {
              OFFSET 0 9.61473 2.16553
              CHANNELS 6 Xposition Yposition Zposition Zrotation Xrotation Yrotation
              End Site
              {
                OFFSET 0 0 0
              }
            }
          }
          JOINT RightCollar
          {
            OFFSET -3.23953 8.30385 0
            CHANNELS 6 Xposition Yposition Zposition Zrotation Xrotation Yrotation
            JOINT RightShoulder
            {
              OFFSET -15.1725 0 0
              CHANNELS 6 Xposition Yposition Zposition Zrotation Xrotation Yrotation
              JOINT RightElbow
              {
                OFFSET -32.4113 0 0
                CHANNELS 6 Xposition Yposition Zposition Zrotation Xrotation Yrotation
                JOINT RightWrist
                {
                  OFFSET -26.4919 0 1.0813
                  CHANNELS 6 Xposition Yposition Zposition Zrotation Xrotation Yrotation
                  End Site
                  {
                    OFFSET 0 0 0
                  }
                }
              }
            }
          }
          JOINT LeftCollar
          {
            OFFSET 3.23953 8.30385 0
            CHANNELS 6 Xposition Yposition Zposition Zrotation Xrotation Yrotation
            JOINT LeftShoulder
            {
              OFFSET 15.1725 0 0
              CHANNELS 6 Xposition Yposition Zposition Zrotation Xrotation Yrotation
              JOINT LeftElbow
              {
                OFFSET 32.4113 0 0
                CHANNELS 6 Xposition Yposition Zposition Zrotation Xrotation Yrotation
                JOINT LeftWrist
                {
                  OFFSET 26.4919 0 1.0813
                  CHANNELS 6 Xposition Yposition Zposition Zrotation Xrotation Yrotation
                  End Site
                  {
                    OFFSET 0 0 0
                  }
                }
              }
            }
          }
        }
      }
    }
  }
  JOINT RightHip
  {
    OFFSET -8.63673 0.00547028 0
    CHANNELS 6 Xposition Yposition Zposition Zrotation Xrotation Yrotation
    JOINT RightKnee
    {
      OFFSET 0.000153637 -44.4933 -2.13963
      CHANNELS 6 Xposition Yposition Zposition Zrotation Xrotation Yrotation
      JOINT RightAnkle
      {
        OFFSET 0 -43.4408 -3.54051
        CHANNELS 6 Xposition Yposition Zposition Zrotation Xrotation Yrotation
        JOINT RightToe
        {
          OFFSET 0 -8.3927 19.1252
          CHANNELS 6 Xposition Yposition Zposition Zrotation Xrotation Yrotation
          End Site
          {
            OFFSET 0 0 0
          }
        }
      }
    }
  }
  JOINT LeftHip
  {
    OFFSET 8.63674 0.00547028 0
    CHANNELS 6 Xposition Yposition Zposition Zrotation Xrotation Yrotation
    JOINT LeftKnee
    {
      OFFSET 0 -44.4932 -2.13963
      CHANNELS 6 Xposition Yposition Zposition Zrotation Xrotation Yrotation
      JOINT LeftAnkle
      {
        OFFSET 0 -43.4408 -3.5405
        CHANNELS 6 Xposition Yposition Zposition Zrotation Xrotation Yrotation
        JOINT LeftToe
        {
          OFFSET 0 -8.39271 19.1252
          CHANNELS 6 Xposition Yposition Zposition Zrotation Xrotation Yrotation
          End Site
          {
            OFFSET 0 0 0
          }
        }
      }
    }
  }
}
MOTION
Frames:	4
Frame Time:	0.0333333
-3.12158 96.5425 62.6506 -0.0185839 -0.00315332 -179.999 -1.33227e-015 10.5691 -1.07959 0.00968512 -0.00709152 -0.0045341 -8.88178e-016 11.6675 1.08235 0.0193715 -0.014186 -0.00906382 -8.88178e-016 10.5876 0 0.0193715 -0.014186 -0.00906382 -1.33227e-015 10.5876 -1.42109e-014 0.0193715 -0.014186 -0.00906382 -1.77636e-015 14.88 -7.10543e-015 -0.782266 -0.0421398 0.178803 -1.33227e-015 9.61473 2.16553 0.967088 0.132148 -0.275049 -3.23953 8.30385 0 2.62676e-018 6.21202e-018 1.2424e-017 -15.1725 -4.76837e-006 7.10543e-015 3.07743 -31.2385 0.488942 -32.4113 -2.2443e-006 -2.97883e-006 14.8408 -9.35561 3.00853 -26.4919 3.92682e-006 1.0813 -23.8422 0.433618 -3.78496 3.23953 8.30385 0 2.62676e-018 6.21202e-018 1.2424e-017 15.1725 -4.76837e-006 -7.10543e-015 -6.05141 -34.3815 -0.115502 32.4113 -5.78124e-006 -2.428e-006 -9.40401 1.41606 2.33772 26.4919 2.43518e-006 1.0813 19.2767 -0.845292 -3.24374 -8.63673 0.00547028 0 0.0803786 -2.08269 -0.12264 0.000153637 -44.4933 -2.13963 -0.187703 0.256548 0.118953 5.16973e-008 -43.4408 -3.54051 -0.11037 1.82243 -0.0623553 -2.26885e-007 -8.3927 19.1252 -0.0460852 -0.0394914 0.223695 8.63674 0.00547028 0 -0.0651656 -2.07763 -0.0323397 -2.31982e-007 -44.4932 -2.13963 0.0754779 0.24165 0.0504187 1.48682e-007 -43.4408 -3.5405 -0.0196621 1.86007 0.010883 -3.68445e-008 -8.39271 19.1252 -0.00227048 -0.0448827 0.153094 
-3.12138 96.4921 62.6627 -0.045959 -0.00215709 -179.999 -2.22045e-015 10.5691 -1.07959 0.0345417 -0.0270425 -0.0192906 -1.33227e-015 11.6675 1.08235 0.0690745 -0.054096 -0.0385658 -1.33227e-015 10.5876 7.10543e-015 0.0690746 -0.0540961 -0.0385658 -1.77636e-015 10.5876 -7.10543e-015 0.0690746 -0.0540961 -0.0385658 -1.77636e-015 14.8799 -7.10543e-015 -2.99028 -0.0195323 0.737458 -8.88178e-016 9.61473 2.16553 3.83275 0.324423 -1.02476 -3.23953 8.30385 0 8.25034e-017 -4.96962e-017 -2.48481e-017 -15.1725 -4.76837e-006 0 3.03156 -31.4711 0.790344 -32.4113 -2.2443e-006 -2.97883e-006 14.658 -8.79004 2.72217 -26.4919 3.92682e-006 1.0813 -23.2873 0.338387 -3.35944 3.23953 8.30385 7.10543e-015 8.25034e-017 -4.96962e-017 -2.48481e-017 15.1725 -4.76837e-006 -1.42109e-014 -6.16595 -34.1799 0.0501658 32.4113 -5.78124e-006 -2.428e-006 -9.49597 1.66124 2.33799 26.4919 2.43518e-006 1.0813 19.486 -0.896573 -3.48913 -8.63673 0.00547028 0 0.349911 -2.34148 -0.464675 0.000153637 -44.4933 -2.13963 -0.738268 0.735653 0.444751 5.16973e-008 -43.4408 -3.54051 -0.563954 1.61648 -0.267433 -2.26885e-007 -8.3927 19.1252 -0.20964 -0.287639 0.908937 8.63674 0.00547028 7.10543e-015 -0.208216 -2.36241 -0.0845436 -2.31982e-007 -44.4932 -2.13963 0.234592 0.782653 0.065014 1.48682e-007 -43.4408 -3.5405 0.156872 1.74825 0.194864 -3.68445e-008 -8.39271 19.1252 0.120986 -0.275876 0.416931 
-3.08267 96.4947 62.665 0.0416219 0.0350074 -179.988 -1.33227e-015 10.5691 -1.07959 0.0237412 -0.0220762 -0.0245175 -4.44089e-016 11.6675 1.08235 0.0474168 -0.0441627 -0.049026 -1.33227e-015 10.5876 0 0.0474168 -0.0441627 -0.0490261 -8.88178e-016 10.5876 -7.10543e-015 0.0474168 -0.0441627 -0.049026 -1.77636e-015 14.88 -7.10543e-015 -2.59177 0.422062 0.805847 -1.33227e-015 9.61473 2.16553 3.70646 -0.26053 -0.802144 -3.23953 8.30385 7.10543e-015 -5.22198e-017 2.48481e-017 -0 -15.1725 -4.76837e-006 0 3.3108 -31.8699 0.930642 -32.4113 -2.2443e-006 -2.97883e-006 14.3604 -7.86923 2.44907 -26.4919 3.92682e-006 1.0813 -22.5986 0.178943 -2.61309 3.23953 8.30385 7.10543e-015 -5.22198e-017 2.48481e-017 -0 15.1725 -4.76837e-006 -7.10543e-015 -6.02614 -34.5059 -0.00445059 32.4113 -5.78124e-006 -2.428e-006 -9.3396 1.76187 2.33812 26.4919 2.43518e-006 1.0813 19.2367 -0.895823 -3.55289 -8.63673 0.00547028 0 0.44415 -2.11322 -0.368792 0.000153637 -44.4933 -2.13963 -0.680336 0.306979 0.341689 5.16973e-008 -43.4408 -3.54051 -0.868794 1.79268 -0.451676 -2.26885e-007 -8.3927 19.1252 -0.287008 -0.497596 1.13038 8.63674 0.00547028 -7.10543e-015 -0.0497763 -2.26757 0.00344724 -2.31982e-007 -44.4932 -2.13963 0.0498885 0.691351 -0.278116 1.48682e-007 -43.4408 -3.5405 0.750769 1.81477 0.719352 -3.68445e-008 -8.39271 19.1252 0.315763 -0.305176 -0.267075 
-3.07316 96.5041 62.6918 0.04746 0.0565457 -179.957 -1.77636e-015 10.5691 -1.07959 0.0279002 -0.0169943 -0.0307028 -1.77636e-015 11.6675 1.08235 0.0557144 -0.0340034 -0.0613973 -1.33227e-015 10.5876 0 0.0557143 -0.0340034 -0.0613972 -8.88178e-016 10.5876 -1.42109e-014 0.0557144 -0.0340034 -0.0613973 -2.22045e-015 14.8802 -1.42109e-014 -2.61749 0.420884 0.805712 8.88178e-016 9.61473 2.16553 3.68885 -0.181815 -0.810552 -3.23953 8.30385 0 -9.99747e-018 2.48481e-017 2.48481e-017 -15.1725 -4.76837e-006 7.10543e-015 3.31199 -31.8271 0.948739 -32.4113 -2.2443e-006 -2.97883e-006 14.6589 -9.66961 2.69424 -26.4919 3.92682e-006 1.0813 -25.2655 0.384015 -3.44968 3.23953 8.30385 0 -9.99747e-018 2.48481e-017 2.48481e-017 15.1725 -4.76837e-006 -1.42109e-014 -6.04883 -34.4331 -0.00553661 32.4113 -5.78124e-006 -2.428e-006 -9.38732 1.682 2.33802 26.4919 2.43518e-006 1.0813 19.277 -0.886653 -3.48789 -8.63673 0.00547028 0 0.449649 -2.09906 -0.38998 0.000153637 -44.4933 -2.13963 -0.665628 0.280878 0.393725 5.16973e-008 -43.4408 -3.54051 -0.945976 1.85216 -0.557696 -2.26885e-007 -8.3927 19.1252 -0.332097 -0.667853 1.20572 8.63674 0.00547028 0 -0.0387868 -2.31129 0.0259367 -2.31982e-007 -44.4932 -2.13963 0.0630447 0.775488 -0.253998 1.48682e-007 -43.4408 -3.5405 0.665552 1.81181 0.669896 -3.68445e-008 -8.39271 19.1252 0.26682 -0.236349 -0.295651 
